<?xml version="1.0" encoding="UTF-8"?>
<svg xmlns="http://www.w3.org/2000/svg" xmlns:xlink="http://www.w3.org/1999/xlink" viewBox="0 0 32 32" width="32px" height="32px">
<path fill="#424242" d="M 15.875 4 L 15.78125 4.03125 L 4.78125 6.46875 L 4 6.65625 L 4 25.34375 L 4.78125 25.53125 L 15.78125 27.96875 L 15.875 28 L 18 28 L 18 24.8125 C 18.3125 24.921875 18.648438 25 19 25 C 20.546875 25 21.808594 23.816406 21.96875 22.3125 C 23.441406 21.617188 24.617188 20.441406 25.3125 18.96875 C 26.816406 18.808594 28 17.546875 28 16 C 28 14.453125 26.816406 13.191406 25.3125 13.03125 C 24.617188 11.558594 23.441406 10.382812 21.96875 9.6875 C 21.808594 8.183594 20.546875 7 19 7 C 18.648438 7 18.3125 7.074219 18 7.1875 L 18 4 Z M 16 6.03125 L 16 25.96875 L 6 23.78125 L 6 8.21875 Z M 11.15625 11 C 10.644531 11 10.148438 11.046875 9.6875 11.15625 C 9.226562 11.265625 8.851562 11.453125 8.5 11.6875 C 8.152344 11.921875 7.859375 12.199219 7.65625 12.5625 C 7.457031 12.925781 7.375 13.371094 7.375 13.875 C 7.375 14.519531 7.535156 15.078125 7.90625 15.53125 C 8.277344 15.984375 8.839844 16.339844 9.59375 16.65625 C 9.890625 16.777344 10.179688 16.914062 10.4375 17.03125 C 10.695312 17.148438 10.90625 17.28125 11.09375 17.40625 C 11.28125 17.53125 11.421875 17.664062 11.53125 17.8125 C 11.640625 17.960938 11.71875 18.125 11.71875 18.3125 C 11.71875 18.453125 11.660156 18.570312 11.59375 18.6875 C 11.527344 18.804688 11.449219 18.910156 11.3125 19 C 11.175781 19.089844 10.984375 19.167969 10.78125 19.21875 C 10.578125 19.269531 10.335938 19.28125 10.0625 19.28125 C 9.59375 19.28125 9.148438 19.195312 8.6875 19.03125 C 8.226562 18.867188 7.796875 18.640625 7.40625 18.3125 L 7.40625 20.46875 C 7.757812 20.648438 8.179688 20.785156 8.65625 20.875 C 9.136719 20.964844 9.625 21 10.15625 21 C 10.671875 21 11.160156 20.941406 11.625 20.84375 C 12.089844 20.746094 12.523438 20.601562 12.875 20.375 C 13.226562 20.148438 13.484375 19.835938 13.6875 19.46875 C 13.890625 19.101562 14 18.664062 14 18.125 C 14 17.734375 13.929688 17.390625 13.8125 17.09375 C 13.695312 16.796875 13.53125 16.542969 13.3125 16.3125 C 13.089844 16.082031 12.839844 15.871094 12.53125 15.6875 C 12.222656 15.503906 11.886719 15.316406 11.5 15.15625 C 11.21875 15.039062 10.945312 14.921875 10.71875 14.8125 C 10.492188 14.703125 10.3125 14.613281 10.15625 14.5 C 10 14.382812 9.867188 14.253906 9.78125 14.125 C 9.695312 13.996094 9.65625 13.847656 9.65625 13.6875 C 9.65625 13.539062 9.707031 13.398438 9.78125 13.28125 C 9.859375 13.164062 9.953125 13.054688 10.09375 12.96875 C 10.230469 12.882812 10.390625 12.828125 10.59375 12.78125 C 10.796875 12.734375 11.035156 12.71875 11.28125 12.71875 C 11.460938 12.71875 11.644531 12.722656 11.84375 12.75 C 12.042969 12.777344 12.265625 12.820312 12.46875 12.875 C 12.671875 12.929688 12.839844 13.007812 13.03125 13.09375 C 13.222656 13.179688 13.402344 13.261719 13.5625 13.375 L 13.5625 11.375 C 13.234375 11.25 12.886719 11.15625 12.5 11.09375 C 12.109375 11.03125 11.660156 11 11.15625 11 Z M 21.5 11.6875 C 22.257812 12.125 22.875 12.742188 23.3125 13.5 C 22.515625 14.039062 22 14.964844 22 16 C 22 17.035156 22.515625 17.960938 23.3125 18.5 C 22.875 19.257812 22.257812 19.875 21.5 20.3125 C 20.960938 19.515625 20.035156 19 19 19 C 18.648438 19 18.3125 19.074219 18 19.1875 L 18 12.8125 C 18.3125 12.925781 18.648438 13 19 13 C 20.035156 13 20.960938 12.484375 21.5 11.6875 Z M 21.5 11.6875 "/>
</svg>