<?xml version="1.0" encoding="utf-8"?>
<!-- Generator: Adobe Illustrator 26.2.1, SVG Export Plug-In . SVG Version: 6.00 Build 0)  -->
<svg version="1.1" id="Layer_1" xmlns="http://www.w3.org/2000/svg" xmlns:xlink="http://www.w3.org/1999/xlink" x="0px" y="0px"
	 viewBox="0 0 233.5 233.5" style="enable-background:new 0 0 233.5 233.5;" xml:space="preserve">
<style type="text/css">
	.st0{fill:#03787C;}
	.st1{font-family:'SegoeUI-Bold';}
	.st2{font-size:45px;}
</style>
<path class="st0" d="M64.2,55.3c0-7.6-4.5-11.4-13.5-11.4H44V67h6.7C59.7,67,64.2,63.1,64.2,55.3z"/>
<path class="st0" d="M233.5,0H0v140.8l0,0v92.7h233.5V0z M157.8,31.1h26.5c18.9,0,28.4,7.9,28.4,23.6c0.2,6.9-2.8,13.6-8.1,18
	c-5.4,4.6-12.7,6.9-21.7,6.9h-8.1v25.5h-16.9V31.1z M91.3,52.2h16.5v8.4h0.2c3.5-6.2,10.1-9.9,17.2-9.6c11.9,0,17.8,7.3,17.8,21.8
	v32.3h-16.5V75.7c0-8.2-3-12.3-8.9-12.3c-2.7-0.1-5.3,1.1-7.1,3.2c-1.9,2.3-2.9,5.3-2.8,8.3v30.1H91.3V52.2z M27.1,31.1h26.5
	C72.5,31.1,82,39,82,54.7c0.2,6.9-2.8,13.6-8.1,18c-5.4,4.6-12.7,6.9-21.7,6.9H44v25.5H27.1V31.1z M226.5,226.5H7v-85.7h219.5V226.5
	z"/>
<path class="st0" d="M194.8,55.3c0-7.6-4.5-11.4-13.5-11.4h-6.6V67h6.6C190.3,67,194.8,63.1,194.8,55.3z"/>
<text transform="matrix(1 0 0 1 23.7659 199.8092)" class="st0 st1 st2">VS CODE</text>
</svg>
