<svg id="Layer_1" data-name="Layer 1" xmlns="http://www.w3.org/2000/svg" viewBox="0 0 233.53 233.53"><path d="M64.16,55.3q0-11.41-13.49-11.41H44V67h6.65Q64.16,67,64.16,55.3Z" style="fill:#CCCCCC"/><path d="M233.53,0H0V140.81H0v92.72H233.53ZM157.75,31.09h26.47q28.35,0,28.35,23.59a22.5,22.5,0,0,1-8.13,18q-8.15,6.88-21.74,6.88h-8.06v25.5H157.75ZM91.31,52.25h16.53v8.36h.21A19,19,0,0,1,125.26,51q17.79,0,17.79,21.78V105.1H126.57V75.73q0-12.27-8.89-12.28a8.88,8.88,0,0,0-7.06,3.25,12.33,12.33,0,0,0-2.78,8.3v30.1H91.31ZM27.13,31.09H53.6Q82,31.09,82,54.68a22.5,22.5,0,0,1-8.13,18q-8.15,6.88-21.74,6.88H44v25.5H27.13Zm199.4,195.44H7V140.81H226.53Z" style="fill:#CCCCCC"/><path d="M194.78,55.3q0-11.41-13.49-11.41h-6.65V67h6.65Q194.79,67,194.78,55.3Z" style="fill:#CCCCCC"/><path d="M53.6,168.3,42.75,199.81h-8L24,168.3h7.64l6.57,21.93a15.62,15.62,0,0,1,.64,3.14H39a17.66,17.66,0,0,1,.68-3.23l6.53-21.84Z" style="fill:#CCCCCC"/><path d="M55.49,198.6v-7A13.65,13.65,0,0,0,59.65,194a13.42,13.42,0,0,0,4.52.8,10,10,0,0,0,2.34-.24,5.49,5.49,0,0,0,1.67-.67,3,3,0,0,0,1-1,2.53,2.53,0,0,0,.33-1.27,2.77,2.77,0,0,0-.52-1.65,6,6,0,0,0-1.44-1.34,14.91,14.91,0,0,0-2.17-1.18q-1.25-.57-2.7-1.17a13.75,13.75,0,0,1-5.5-3.75,8.21,8.21,0,0,1-1.82-5.37,8.54,8.54,0,0,1,1-4.23A8.42,8.42,0,0,1,59,170a12.15,12.15,0,0,1,4-1.68,20.13,20.13,0,0,1,4.74-.54,28.38,28.38,0,0,1,4.37.3,17.4,17.4,0,0,1,3.5.91v6.57a11.07,11.07,0,0,0-1.73-1,15.64,15.64,0,0,0-1.92-.69,15.33,15.33,0,0,0-3.82-.54,9.91,9.91,0,0,0-2.2.23,6.13,6.13,0,0,0-1.67.65,3.26,3.26,0,0,0-1.05,1,2.39,2.39,0,0,0-.38,1.31,2.49,2.49,0,0,0,.42,1.42,4.6,4.6,0,0,0,1.19,1.18,11.7,11.7,0,0,0,1.87,1.1c.73.36,1.56.73,2.48,1.11A28.18,28.18,0,0,1,72.18,183a12.14,12.14,0,0,1,2.58,2,7.81,7.81,0,0,1,1.65,2.56A9.08,9.08,0,0,1,77,191a8.93,8.93,0,0,1-1,4.43,8,8,0,0,1-2.71,2.9,11.89,11.89,0,0,1-4,1.6,23.11,23.11,0,0,1-4.8.48,26.91,26.91,0,0,1-4.93-.44A14.78,14.78,0,0,1,55.49,198.6Z" style="fill:#CCCCCC"/><path d="M117.17,198.69a20.82,20.82,0,0,1-9,1.67q-7.25,0-11.4-4.26t-4.15-11.36q0-7.56,4.67-12.26a16.3,16.3,0,0,1,12.11-4.71,22.56,22.56,0,0,1,7.78,1.17v6.83a13.78,13.78,0,0,0-7.21-1.89,9.57,9.57,0,0,0-7.16,2.79,10.38,10.38,0,0,0-2.72,7.56,10.1,10.1,0,0,0,2.57,7.28,9.07,9.07,0,0,0,6.92,2.72,14.82,14.82,0,0,0,7.6-2Z" style="fill:#CCCCCC"/><path d="M135.43,200.36a14.66,14.66,0,0,1-11-4.41q-4.26-4.39-4.26-11.48,0-7.47,4.33-12.08a15,15,0,0,1,11.47-4.62,14.34,14.34,0,0,1,10.91,4.42c2.77,2.94,4.16,6.83,4.16,11.64s-1.44,8.95-4.32,12A14.83,14.83,0,0,1,135.43,200.36Zm.31-26.48a7.15,7.15,0,0,0-5.93,2.8,11.66,11.66,0,0,0-2.2,7.42,11.41,11.41,0,0,0,2.2,7.4,7.57,7.57,0,0,0,11.57.08q2.16-2.64,2.16-7.35,0-4.9-2.09-7.62A6.79,6.79,0,0,0,135.74,173.88Z" style="fill:#CCCCCC"/><path d="M156.24,199.81V168.3H167.4q16.78,0,16.79,15.36,0,7.36-4.58,11.76t-12.21,4.39Zm7.1-25.73v20h3.51a9.48,9.48,0,0,0,7.24-2.77,10.48,10.48,0,0,0,2.63-7.53,9.53,9.53,0,0,0-2.61-7.09c-1.73-1.72-4.17-2.58-7.3-2.58Z" style="fill:#CCCCCC"/><path d="M208.31,199.81H189.42V168.3h18.17v5.78H196.52v7h10.3v5.76h-10.3v7.2h11.79Z" style="fill:#CCCCCC"/></svg>